<svg xmlns="http://www.w3.org/2000/svg" width="375" height="396" viewBox="0 0 375 396">
  <path d="M 225.0,156.5 L 191.0,156.5 L 176.0,154.5 L 150.0,147.5 L 135.0,140.5 L 117.5,126.0 L 111.5,115.0 L 110.5,102.0 L 114.5,92.0 L 126.0,79.5 L 145.0,68.5 L 170.0,60.5 L 190.0,57.5 L 226.0,57.5 L 250.0,61.5 L 271.0,68.5 L 291.0,80.5 L 300.5,91.0 L 305.5,105.0 L 303.5,117.0 L 297.5,127.0 L 284.0,138.5 L 268.0,146.5 L 245.0,153.5 L 225.0,156.5 Z M 175.5,100.0 L 185.0,96.5 L 188.5,93.0 L 188.5,88.0 L 180.0,81.5 L 170.0,79.5 L 160.0,80.5 L 153.0,83.5 L 148.5,88.0 L 148.5,93.0 L 158.0,99.5 L 175.5,100.0 Z M 240.5,100.0 L 248.0,97.5 L 253.5,92.0 L 252.5,87.0 L 245.0,81.5 L 235.0,79.5 L 225.0,80.5 L 219.0,82.5 L 213.5,87.0 L 213.5,93.0 L 220.0,98.5 L 227.0,100.5 L 240.5,100.0 Z M 183.5,134.0 L 191.0,133.5 L 201.0,128.5 L 203.5,124.0 L 202.5,121.0 L 198.0,116.5 L 190.0,113.5 L 176.0,113.5 L 166.0,117.5 L 163.5,120.0 L 162.5,125.0 L 166.0,129.5 L 175.0,133.5 L 183.5,134.0 Z M 248.5,134.0 L 255.0,133.5 L 263.0,130.5 L 267.5,126.0 L 267.5,121.0 L 263.0,116.5 L 255.0,113.5 L 237.0,114.5 L 232.0,116.5 L 227.5,121.0 L 227.5,126.0 L 232.0,130.5 L 240.0,133.5 L 248.5,134.0 Z M 266.0,341.5 L 248.0,340.5 L 239.0,335.5 L 229.5,324.0 L 226.5,313.0 L 222.5,219.0 L 221.5,212.0 L 218.5,207.0 L 211.0,202.5 L 183.0,201.5 L 159.0,196.5 L 132.0,184.5 L 118.5,173.0 L 112.5,164.0 L 110.5,157.0 L 111.0,138.5 L 126.0,150.5 L 144.0,159.5 L 173.0,167.5 L 203.0,170.5 L 228.0,169.5 L 260.0,163.5 L 285.0,153.5 L 305.5,139.0 L 305.5,156.0 L 299.5,181.0 L 295.5,208.0 L 290.5,315.0 L 285.5,328.0 L 277.0,336.5 L 266.0,341.5 Z M 212.0,256.5 L 192.0,256.5 L 189.5,254.0 L 190.5,235.0 L 185.5,223.0 L 185.5,221.0 L 189.0,217.5 L 210.5,218.0 L 212.0,256.5 Z" fill="#000000" fill-rule="evenodd"/>
</svg>